<?xml version="1.0" encoding="utf-8"?>
<!-- Generator: Adobe Illustrator 15.0.0, SVG Export Plug-In . SVG Version: 6.00 Build 0)  -->
<!DOCTYPE svg PUBLIC "-//W3C//DTD SVG 1.1//EN" "http://www.w3.org/Graphics/SVG/1.1/DTD/svg11.dtd">
<svg version="1.1" id="Layer_1" xmlns="http://www.w3.org/2000/svg" xmlns:xlink="http://www.w3.org/1999/xlink" x="0px" y="0px"
	 width="400px" height="250px" viewBox="0 0 400 250" enable-background="new 0 0 400 250" xml:space="preserve">
<text transform="matrix(1 0 0 1 9.7861 210.2246)" fill="#7CB25F" font-family="'Times-Bold'" font-size="143.226" letter-spacing="-9">file</text>
<text transform="matrix(1 0 0 1 159.3892 210.2246)" fill="#EF3535" font-family="'HelveticaNeue-Bold'" font-size="143.226" letter-spacing="-9">UM</text>
<g>
	<path fill="#EF3535" stroke="#231F20" stroke-width="2" stroke-miterlimit="10" d="M171.422,71.408
		c-0.232-0.272,0.124-1.565,1.188-1.951c1.172-0.424,3.127,0.836,4.098,1.369c2.043,1.128,4.199,2.995,5.279,4.999
		c1.682,3.118,2.204,9.779-0.998,12.284"/>
	<g>
		<g>
			<path fill="#E6E7E8" d="M143.68,66.758c-2.636,1.268-1.789,0.16,0.039,1.151c0.915,3.415,1.83,6.83,2.745,10.245
				c-2.517,4.339-6.038-1.572-3.989-3.34c1.13-0.656,2.261-1.312,3.391-1.969c0.629-0.236,2.18,0.673,0.17-0.299
				c-1.77-0.856-3.335-1.38-5.287-1.584c-3.104-0.326-6.284,0.163-8.923,1.916c-6.019,3.994-6.077,12.625-0.481,17.029
				c6.044,4.757,13.461,3.812,20.051,0.776c3.028-1.395,5.284-4.18,6.785-7.059c0.029-0.056,1.698-4.675,0.974-4.127
				c1.398-1.057,3.318-1.581,4.906-2.25c6.73-2.837,3.444-14.767-3.744-13.971c-10.33,1.143-35.395-4.754-35.223,12.561
				c0.098,9.882,13.949,9.516,15.003,0.108c-0.207,1.849-1.543,1.534,0.004,1.496c9.667-0.237,9.776-15.241,0.108-15.003
				c-8.339,0.205-14.18,5.048-15.115,13.398c5.001,0.036,10.002,0.072,15.003,0.108c0.013,1.33-2.529,3.403-1.324,2.721
				c-1.269,0.718,1.394-0.26,1.839-0.348c1.379-0.273,4.674-0.287,6.761-0.278c4.233,0.018,8.617,0.706,12.835,0.239
				c-1.248-4.657-2.496-9.314-3.744-13.971c-3.631,1.531-7.836,3.281-9.736,7.059c-0.879,1.748-1.529,3.421-1.927,5.333
				c-0.167,0.8-0.09,0.733-1.608,1.266c-0.631,0.221-2.794,0.1-2.074,0.667c-3.841,4.606-4.448,7.004-1.821,7.194
				c-1.062-0.427-1.018-0.378,0.131,0.145c3.26,1.577,6.759,2.701,10.32,1.366c8.155-3.057,9.623-13.437,3.424-19.151
				c-5.903-5.441-15.602-4.593-19.698,2.471c-2.009,3.464-0.844,8.3,2.745,10.245c5.428,2.942,9.863,1.296,15.057-1.202
				C159.986,75.508,152.349,62.588,143.68,66.758L143.68,66.758z"/>
		</g>
	</g>
	<g>
		<g>
			<path fill="#E6E7E8" d="M129.355,72.361c-0.079-1.132-1.208,0.554-0.703,0.424c-0.648,0.166,4.288,9.02-2.029-1.646
				c-0.344-1.284-0.688-2.568-1.032-3.852c-0.418-3.304,3.281-3.174,0.77-2.334c-1.206,0.403-2.396,0.395-3.656,0.407
				c-2.158,0.021-4.767-0.429-6.279-1.275c0.016,4.321,0.032,8.643,0.048,12.965c0.677-0.852,1.533-1.238,2.567-1.16
				c-1.307-0.003-2.614-0.006-3.921-0.01c0.486,0.13,0.973,0.26,1.459,0.39c-1.117-4.17-2.235-8.34-3.352-12.51
				c1.678-1.367,0.532-0.341-0.479-0.216c-1.282,0.159-2.589,0.175-3.878,0.223c-2.765,0.102-5.512,0.155-8.251,0.596
				c-6.837,1.102-13.504,4.479-20.181,6.363c-9.303,2.626-5.432,17.118,3.882,14.489c7.093-2.002,14.433-6.04,21.823-6.365
				c6.49-0.285,12.487-0.252,17.75-4.54c4.482-3.651,1.661-11.171-3.352-12.51c-4.291-1.146-8.084-0.278-11.661,2.31
				c-4.394,3.179-5.256,9.999,0.048,12.965c9.215,5.154,28.117,5.597,31.49-7.059c4.146-15.555-27.373-16.475-26.064,2.235
				C115.023,81.854,130.029,82.004,129.355,72.361L129.355,72.361z"/>
		</g>
	</g>
	<g>
		<g>
			<path fill="#E6E7E8" d="M180.171,86.273c-1.68-3.798-3.163-7.514-5.797-10.772c-1.446-1.789-4.444-1.082-5.497,0.708
				c-0.662,1.125-0.81,2.199-0.385,3.441c2.132-0.899,4.265-1.798,6.397-2.697c-1.665-2.475-3.779-4.329-5.981-6.307
				c-1.65,1.65-3.3,3.3-4.95,4.95c3.624,2.941,5.971,7.753,10.32,9.75c4.072,1.87,7.631-4.163,3.533-6.044
				c-3.675-1.688-5.796-6.134-8.903-8.656c-3.436-2.788-8.36,1.887-4.95,4.95c1.715,1.54,3.59,2.961,4.888,4.89
				c2.112,3.14,7.744,1.246,6.397-2.697c-0.05-0.145-0.1-0.291-0.149-0.436c-0.118,0.899-0.235,1.798-0.353,2.697
				c0.061-0.103,0.121-0.206,0.181-0.308c-1.832,0.236-3.665,0.472-5.497,0.708c2.179,2.694,3.318,6.223,4.703,9.355
				C175.949,93.928,181.979,90.362,180.171,86.273L180.171,86.273z"/>
		</g>
	</g>
	<path fill="none" stroke="#000000" stroke-width="2" stroke-miterlimit="10" d="M131.98,89.328c-4.432-1.437-2.75-3.473-5.84-7.475
		c-2.433-3.151,0.498-5.248-1.199-8.79c-2.453-5.125,8.486-11.104,12.937-11.136c7.143-0.054,27.258-1.851,31.113,7.655"/>
	<path fill="none" d="M150.876,92.165c-2.758-6.223-6.695-13.43-5.062-20.498"/>
	<path fill="none" stroke="#000000" stroke-width="2" stroke-miterlimit="10" d="M157.776,86.777"/>
	<path fill="#FFFFFF" stroke="#000000" stroke-width="2" stroke-miterlimit="10" d="M76.5,26.598
		c6.021-8.368,18.492,2.547,24.444,5.881c9.521,5.331,19.068,10.716,28.552,15.847c3.848,2.083,7.334,4.271,9.833,7.724
		c2.105,2.909,3.969,4.75,6.818,6.947c0.133,0.052,0.135,0.049,0.006-0.009c-1.663-0.819-3.355-0.361-4.997-0.877
		c-1.978-0.623-3.547-2.342-5.609-2.958c-4.509-1.345-8.701,0.073-13.217,0.907c-4.894,0.905-9.675,1.993-14.34-0.357
		c-3.893-1.963-7.461-5.82-10.723-8.721c-4.162-3.7-8.6-7.099-12.203-11.374c-2.721-3.226-7.281-8.163-7.609-12.85"/>
	<path fill="#FFFFFF" stroke="#000000" stroke-width="2" stroke-miterlimit="10" d="M141.28,81.983
		c-3.273-2.182-9.741-0.372-13.595-1.299c-5.062-1.214-9.309-4.526-14.338-5.758c-7.566-1.854-18.14,1.79-24.562,6.015
		c-7.029,4.625-17.615,10.154-21.897,17.806c-5.588,9.992,18.148,8.065,22.411,7.746c10.245-0.771,21.26-1.934,29.799-8.056
		c6.774-4.853,12.849-9.609,20.715-13.134"/>
	<path fill="none" stroke="#000000" stroke-width="2" stroke-miterlimit="10" d="M82.017,84.341
		c-3.389-0.357-9.045-1.297-8.457-5.665c0.684-5.066,6.158-9.072,10.621-10.616c4.736-1.64,9.711-3.11,14.522-4.51
		c3.852-1.121,8.338-3.29,12.454-2.65c0.184,0.501-0.17,0.417-0.303,0.736"/>
	<path fill="none" stroke="#000000" stroke-width="2" stroke-miterlimit="10" d="M129.3,94.163c0.562,3.502-1.965,5.979-4.076,8.04"
		/>
	<path fill="none" stroke="#000000" stroke-width="2" stroke-miterlimit="10" d="M124.729,102.422
		c5.142,2.906,6.033-5.121,7.094-7.915"/>
	<path fill="none" stroke="#000000" stroke-width="2" stroke-miterlimit="10" d="M126.353,104.06
		c-1.458,1.034,3.546,4.502,4.6,5.623c2.013,2.137,3.186,4.743,4.535,7.381c4.249-2.043-6.189-11.918-8.285-13.089"/>
	<path fill="none" stroke="#000000" stroke-width="2" stroke-miterlimit="10" d="M136.24,118.84
		c-0.419-0.93,0.685,1.523,0.886,1.967c0.434,0.969,0.993,1.949,1.33,2.953c0.709,2.113,1.262,4.426,1.785,6.592
		c0.896,3.692-0.103,9.047,1.668,12.215c3.704-0.946,1.309-10.019,0.456-12.571c-1.428-4.276-3.681-7.935-6.235-11.399"/>
	<path fill="none" stroke="#000000" stroke-width="2" stroke-miterlimit="10" d="M143.077,93.891
		c0.193,5.623,18.613,7.901,22.426,5.265c-0.951-2.851-5.785-1.832-8.214-2.404c-2.23-0.528-6.595-3.682-7.78-3.678"/>
	<path fill="none" stroke="#000000" stroke-width="2" stroke-miterlimit="10" d="M131.486,89.545
		c1.848,4.232,10.241,3.713,13.958,3.212c2.484-0.335,5.098-0.368,7.492-1.345c2.199-0.9,3.768-2.668,5.934-3.546"/>
	<path fill="none" stroke="#000000" stroke-width="2" stroke-miterlimit="10" d="M165.937,98.708
		c-0.424-0.714,0.372,0.145,1.018,0.43c0.854,0.379,1.786,0.772,2.66,1.171c1.581,0.726,3.157,1.392,4.739,1.998
		c2.292,0.877,6.004,3.169,8.422,2.396c-1.02-2.103-6.228-4.076-8.394-5.131c-3.751-1.828-5.401-1.332-9.296-0.779"/>
	<path fill="none" stroke="#000000" stroke-width="2" stroke-miterlimit="10" d="M180.397,105.229
		c6.914,2.728,18.019,8.204,25.574,5.032c-0.955-2.115-9.543-2.1-11.935-2.805c-4.18-1.231-8.172-3.184-12.224-4.342"/>
	<path fill="none" stroke="#000000" stroke-width="2" stroke-miterlimit="10" d="M180.952,88.206
		c3.975,2.183,8.477,4.367,13.067,4.238c1.624-0.045,9.215,0.278,8.333-2.4c-4.031-0.241-7.951,0.264-11.996-0.099
		c-1.588-0.143-9.542-2.381-8.902-2.991"/>
	<path fill="none" stroke="#000000" stroke-width="2" stroke-miterlimit="10" d="M102.664,104.642
		c-0.711,2.438-1.148,5.379-2.125,7.766c-0.799,1.963-3.095,5.08,0.88,5.107c0.517-2.001,0.372-4.033,1.019-5.969
		c0.682-2.044,2.074-3.91,1.762-6.117"/>
	<path fill="none" stroke="#000000" stroke-width="2" stroke-miterlimit="10" d="M100.658,117.96
		c1.068,6.815-7.477,16.987-12.853,20.007c2.194,4.301,9.244-5.407,10.179-7.349c1.514-3.151,4.367-9.291,3.523-12.746"/>
	<path fill="#EF3535" stroke="#231F20" stroke-width="2" stroke-miterlimit="10" d="M159.645,78.766
		c-2.121,4.222-3.342,6.464-0.459,10.849c2.137,3.249,6.553,7.197,10.842,6.387c8.673-1.639,3.859-17.317-2.732-19.117
		c-2.32-0.634-5.719-0.383-6.58,2.289"/>
	<path fill="none" stroke="#000000" stroke-width="2" stroke-miterlimit="10" d="M163.962,76.529
		c1.478-1.947,3.392-5.049,6.008-5.062"/>
	<path fill="none" stroke="#000000" stroke-width="2" stroke-miterlimit="10" d="M170.686,71.74
		c3.088,3.524,7.92,5.405,8.811,10.244c0.348,1.887,0.646,4.723,0.17,6.637c-0.684,2.753-3.076,3.137-5.266,4.471
		c-0.174-0.219-0.205-0.455-0.352-0.684"/>
	<path fill="none" stroke="#000000" stroke-width="2" stroke-miterlimit="10" d="M81.113,83.29
		c-1.458-2.513-1.225-5.425-0.716-8.091c0.632-3.302,2.367-4.196,3.876-6.847"/>
	<path fill="none" stroke="#000000" stroke-width="2" stroke-miterlimit="10" d="M85.673,81.243
		c-1.616-3.599-2.015-6.518,0.319-9.666c1.163-1.571,2.967-3.966,4.551-5.125"/>
	<path fill="none" stroke="#000000" stroke-width="2" stroke-miterlimit="10" d="M94.364,76.792
		c-2.544-4.301,1.349-10.473,4.674-12.786"/>
	<path fill="none" stroke="#000000" stroke-width="2" stroke-miterlimit="10" d="M104.579,73.302
		c-2.851-4.678,1.579-9.45,4.856-11.771"/>
	<path fill="none" stroke="#000000" stroke-width="2" stroke-miterlimit="10" d="M117.105,76.175
		c-2.357-4.702,0.619-12.881,5.222-15.225"/>
</g>
<text transform="matrix(1 0 0 1 104.8765 232.8408)" font-family="'HelveticaNeue-Thin'" font-size="22.5">Genome File Upload Manager</text>
</svg>
